#!OML:ASF X:\2005_08_12_Meinard\c3d\meinard.ASF
:FULLY-SPECIFIED
:DEGREES
1312
root -2.44938 17.535 -5.30473 -31.4172 -67.0756 19.5626
lowerback 29.0076 -1.08595 1.188
upperback 1.19332 -1.98531 -4.91399
thorax -14.3384 -1.22164 -5.20805
lowerneck 0.477633 -16.9421 8.17512
upperneck -15.0153 -21.7111 9.46408
head -4.47247 -11.6884 2.54726
rclavicle 4.5969e-014 -2.78299e-015
rhumerus 22.788 -23.7975 8.54455
rradius 29.4077
rwrist -8.01331
rhand -25.2179 -8.9203
rfingers 7.12502
rthumb 1.30114 -38.8961
lclavicle 4.5969e-014 -2.78299e-015
lhumerus 35.7569 123.133 85.1031
lradius 10.3071
lwrist -125.073
lhand -13.0704 -13.9504
lfingers 7.12502
lthumb 13.0254 15.623
rfemur 6.64615 -4.85314 12.8268
rtibia 23.8259
rfoot -15.6532 8.08807
rtoes -6.98458
lfemur 13.8896 -8.25652 -12.7414
ltibia 25.1023
lfoot 15.0427 17.0577
ltoes -25.0465
1313
root -2.44359 17.54 -5.30306 -31.2951 -66.9586 19.5202
lowerback 29.1758 -1.06195 1.13375
upperback 1.12672 -1.98096 -4.94454
thorax -14.4936 -1.21981 -5.21384
lowerneck 0.461775 -16.9529 8.2414
upperneck -14.8976 -21.7289 9.45082
head -4.44187 -11.6939 2.52834
rclavicle 1.05853e-014 -1.13506e-013
rhumerus 18.5979 -16.8072 14.9431
rradius 28.1084
rwrist -19.629
rhand -26.4413 -12.2066
rfingers 7.12502
rthumb 0.119506 -42.1863
lclavicle 1.05853e-014 -1.13506e-013
lhumerus 31.8681 126.936 79.9874
lradius 10.7184
lwrist -129.394
lhand -13.2301 -13.7028
lfingers 7.12502
lthumb 12.8714 15.8803
rfemur 6.65156 -4.9418 12.7959
rtibia 23.639
rfoot -15.5537 7.97852
rtoes -7.1374
lfemur 13.7057 -8.34162 -12.7843
ltibia 25.1978
lfoot 15.0756 16.9805
ltoes -25.0247
1314
root -2.43703 17.5436 -5.30165 -31.171 -66.8324 19.4288
lowerback 29.4067 -1.02776 1.05888
upperback 1.07295 -1.96754 -4.95074
thorax -14.6595 -1.21143 -5.1844
lowerneck 0.355733 -16.9703 8.36592
upperneck -14.7283 -21.7717 9.37003
head -4.39484 -11.7073 2.47457
rclavicle 1.12065e-014 2.82274e-014
rhumerus 14.2034 -2.82244 23.6887
rradius 28.6209
rwrist -39.2294
rhand -29.3301 -15.8146
rfingers 7.12502
rthumb -2.67054 -45.7776
lclavicle 1.12065e-014 2.82274e-014
lhumerus 28.7898 130.681 75.7639
lradius 11.1586
lwrist -133.512
lhand -13.4455 -13.5059
lfingers 7.12502
lthumb 12.6637 16.0902
rfemur 6.68513 -5.05468 12.7631
rtibia 23.4916
rfoot -15.4367 7.88434
rtoes -7.11411
lfemur 13.5483 -8.39875 -12.7888
ltibia 25.3046
lfoot 15.121 16.8006
ltoes -25.1836
1315
root -2.42918 17.547 -5.30131 -30.9986 -66.6926 19.3027
lowerback 29.6362 -1.00302 0.991348
upperback 1.00363 -1.96483 -4.9589
thorax -14.8445 -1.20858 -5.15753
lowerneck 0.257447 -16.9888 8.50643
upperneck -14.5269 -21.8185 9.25806
head -4.34439 -11.7201 2.40983
rclavicle 7.25564e-015 1.43125e-014
rhumerus 12.1402 14.3732 32.2785
rradius 29.7995
rwrist -62.4322
rhand -33.0945 -18.1815
rfingers 7.12502
rthumb -6.30545 -48.0676
lclavicle 7.25564e-015 1.43125e-014
lhumerus 26.2703 134.431 72.1247
lradius 11.6842
lwrist -137.574
lhand -13.7158 -13.4703
lfingers 7.12502
lthumb 12.4031 16.1418
rfemur 6.67259 -5.15169 12.7505
rtibia 23.3895
rfoot -15.3356 7.77251
rtoes -7.10666
lfemur 13.3643 -8.51902 -12.7998
ltibia 25.4068
lfoot 15.1784 16.6403
ltoes -25.3332
1316
root -2.4222 17.5481 -5.30086 -30.8665 -66.5373 19.2032
lowerback 29.8574 -0.973078 0.89097
upperback 0.957888 -1.967 -4.96805
thorax -14.9972 -1.20509 -5.11109
lowerneck 0.160692 -17.0042 8.6937
upperneck -13.9598 -21.899 8.98182
head -4.64321 -11.7142 2.54795
rclavicle 1.52816e-014 3.57812e-014
rhumerus 12.3759 28.94 39.1903
rradius 30.6684
rwrist -82.707
rhand -35.859 -19.3045
rfingers 7.12502
rthumb -8.97377 -49.0937
lclavicle 1.52816e-014 3.57812e-014
lhumerus 24.4619 137.586 69.3605
lradius 12.1625
lwrist -140.841
lhand -14.0242 -13.4187
lfingers 7.12502
lthumb 12.1058 16.2111
rfemur 6.65965 -5.33523 12.6944
rtibia 23.3262
rfoot -15.2527 7.74539
rtoes -7.15618
lfemur 13.1997 -8.6333 -12.8189
ltibia 25.5043
lfoot 15.239 16.4607
ltoes -25.4715
1317
root -2.41457 17.5483 -5.30137 -30.7098 -66.3648 19.0609
lowerback 30.1089 -0.954917 0.809281
upperback 0.89987 -1.98058 -4.98333
thorax -15.1806 -1.20848 -5.07745
lowerneck 0.0394167 -17.0266 8.86522
upperneck -13.7292 -21.9545 8.85199
head -4.57282 -11.7312 2.45873
rclavicle 4.44781e-015 -7.55382e-015
rhumerus 13.1626 38.6764 43.7117
rradius 31.2742
rwrist -97.5508
rhand -37.3451 -20.7144
rfingers 7.12502
rthumb -10.4075 -50.4368
lclavicle 4.44781e-015 -7.55382e-015
lhumerus 22.9566 140.533 66.9808
lradius 12.6721
lwrist -143.917
lhand -14.4073 -13.3365
lfingers 7.12502
lthumb 11.7364 16.3147
rfemur 6.64306 -5.4421 12.6736
rtibia 23.3153
rfoot -15.2221 7.60972
rtoes -7.23256
lfemur 13.0516 -8.76817 -12.8251
ltibia 25.5809
lfoot 15.324 16.2601
ltoes -25.5587
1318
root -2.4082 17.5465 -5.30198 -30.5693 -66.1819 18.9101
lowerback 30.3499 -0.934817 0.703284
upperback 0.866384 -1.99559 -4.97339
thorax -15.3273 -1.20879 -5.00126
lowerneck -0.107733 -17.0523 8.9882
upperneck -13.4759 -22.02 8.72839
head -4.48205 -11.75 2.37196
rclavicle -2.30963e-014 5.00937e-014
rhumerus 13.2465 44.2693 45.8164
rradius 31.6935
rwrist -107.781
rhand -38.3062 -22.9822
rfingers 7.12502
rthumb -11.3346 -52.6559
lclavicle -2.30963e-014 5.00937e-014
lhumerus 21.7129 143.21 65.022
lradius 13.1682
lwrist -146.583
lhand -14.8209 -13.2471
lfingers 7.12502
lthumb 11.3375 16.4265
rfemur 6.62862 -5.56208 12.6408
rtibia 23.3602
rfoot -15.1962 7.52875
rtoes -7.10687
lfemur 12.9368 -8.87616 -12.8094
ltibia 25.633
lfoot 15.3687 16.0386
ltoes -25.6486
1319
root -2.40266 17.5433 -5.30772 -30.4161 -65.9896 18.7673
lowerback 30.5775 -0.905831 0.538753
upperback 0.81777 -2.01695 -4.94581
thorax -15.4826 -1.20675 -4.87095
lowerneck -0.213713 -17.0626 9.05329
upperneck -13.2076 -22.0609 8.61931
head -4.38455 -11.7546 2.2979
rclavicle 3.40419e-014 2.78299e-015
rhumerus 12.2978 47.0454 45.9421
rradius 31.945
rwrist -114.709
rhand -39.1002 -25.822
rfingers 7.12502
rthumb -12.1003 -55.4521
lclavicle 3.40419e-014 2.78299e-015
lhumerus 20.8035 145.417 63.5388
lradius 13.5993
lwrist -148.713
lhand -15.2282 -12.9576
lfingers 7.12502
lthumb 10.9447 16.7371
rfemur 6.56022 -5.64762 12.6422
rtibia 23.4564
rfoot -15.1824 7.3737
rtoes -7.0145
lfemur 12.8037 -8.96154 -12.755
ltibia 25.6562
lfoot 15.4494 15.7789
ltoes -25.5582
1320
root -2.3993 17.5382 -5.3139 -30.3018 -65.7986 18.6261
lowerback 30.8009 -0.87442 0.379923
upperback 0.794851 -2.03519 -4.92653
thorax -15.6057 -1.20347 -4.75363
lowerneck -0.30724 -17.1008 9.09534
upperneck -12.9414 -22.1388 8.51417
head -4.28711 -11.7767 2.2311
rclavicle 4.32357e-015 2.06736e-014
rhumerus 10.3217 47.4883 44.3478
rradius 31.8613
rwrist -118.752
rhand -39.8681 -28.9482
rfingers 7.12502
rthumb -12.8407 -58.5332
lclavicle 4.32357e-015 2.06736e-014
lhumerus 19.8587 147.713 62.0717
lradius 14.088
lwrist -150.937
lhand -15.7191 -12.6535
lfingers 7.12502
lthumb 10.4711 17.0657
rfemur 6.52508 -5.66278 12.6605
rtibia 23.5891
rfoot -15.2213 7.1726
rtoes -6.90286
lfemur 12.7331 -9.01346 -12.6928
ltibia 25.6557
lfoot 15.4968 15.4744
ltoes -25.7167
1321
root -2.39678 17.5315 -5.32073 -30.1504 -65.591 18.4533
lowerback 30.9897 -0.860232 0.252831
upperback 0.772516 -2.06736 -4.92411
thorax -15.7158 -1.20907 -4.66689
lowerneck -0.399084 -17.1373 9.11214
upperneck -12.6178 -22.2153 8.43444
head -4.16261 -11.7958 2.16927
rclavicle 5.2591e-014 1.15295e-014
rhumerus 7.7727 46.2032 41.7562
rradius 31.5318
rwrist -120.314
rhand -40.5662 -31.8019
rfingers 7.12502
rthumb -13.5136 -61.3435
lclavicle 5.2591e-014 1.15295e-014
lhumerus 19.3027 149.2 61.1312
lradius 14.3847
lwrist -152.249
lhand -16.1541 -12.1913
lfingers 7.12502
lthumb 10.0515 17.5487
rfemur 6.47303 -5.68476 12.6914
rtibia 23.7474
rfoot -15.2913 6.93748
rtoes -6.77027
lfemur 12.6527 -9.06515 -12.6059
ltibia 25.6395
lfoot 15.5598 15.1857
ltoes -25.8529
1322
root -2.39615 17.5259 -5.32586 -30.027 -65.3877 18.2989
lowerback 31.139 -0.851233 0.130793
upperback 0.764362 -2.09941 -4.89995
thorax -15.7893 -1.21334 -4.55868
lowerneck -0.463998 -17.1738 8.99739
upperneck -12.2823 -22.2909 8.38166
head -4.01867 -11.8102 2.13059
rclavicle -2.27484e-014 4.96962e-014
rhumerus 5.41514 44.2153 39.2861
rradius 31.2538
rwrist -120.479
rhand -41.2515 -33.8703
rfingers 7.12502
rthumb -14.174 -63.3667
lclavicle -2.27484e-014 4.96962e-014
lhumerus 18.8506 150.507 60.4006
lradius 14.6328
lwrist -153.373
lhand -16.5639 -11.7194
lfingers 7.12502
lthumb 9.65612 18.0393
rfemur 6.42704 -5.70382 12.7086
rtibia 23.9221
rfoot -15.3672 6.74817
rtoes -6.68115
lfemur 12.6011 -9.0786 -12.5254
ltibia 25.6098
lfoot 15.6343 14.8806
ltoes -25.9174
1323
root -2.39488 17.5184 -5.32856 -29.8864 -65.1993 18.1213
lowerback 31.2524 -0.863298 0.0746975
upperback 0.767754 -2.13644 -4.88876
thorax -15.8367 -1.22495 -4.49901
lowerneck -0.449449 -17.223 8.81642
upperneck -11.9681 -22.3718 8.37543
head -3.88342 -11.8285 2.12322
rclavicle 4.16702e-014 -2.3059e-014
rhumerus 3.35278 41.7376 37.0145
rradius 31.0871
rwrist -119.305
rhand -41.8377 -35.0194
rfingers 7.12502
rthumb -14.7388 -64.4755
lclavicle 4.16702e-014 -2.3059e-014
lhumerus 18.4768 151.618 59.7933
lradius 14.8254
lwrist -154.267
lhand -16.9557 -11.3234
lfingers 7.12502
lthumb 9.27813 18.4524
rfemur 6.40015 -5.69547 12.7363
rtibia 24.0806
rfoot -15.4272 6.54464
rtoes -6.49149
lfemur 12.5617 -9.09392 -12.4486
ltibia 25.5844
lfoot 15.6661 14.5444
ltoes -26.0776
